/* XPM */
static char *result[] = {
/* columns rows colors chars-per-pixel */
"52 64 2 1 ",
"  c black",
". c None",
/* pixels */
"....................................   .............",
"..................................     .............",
"................................       .............",
"...............................        .............",
"..............................        ..............",
".............................         ..............",
"............................          ..............",
"...........................          ...............",
"...........................          ...............",
"...........................         ................",
"..........................         .................",
"..........................        ..................",
"..........................       ...................",
"..........................     .....................",
"..........................   .......................",
"....................................   .............",
"...........         ............           .........",
".........              .......                ......",
".......                                        .....",
"......                                          ....",
".....                                            ...",
"....                                              ..",
"...                                              ...",
"...                                             ....",
"..                                             .....",
"..                                            ......",
".                                             ......",
".                                            .......",
".                                            .......",
".                                           ........",
"                                            ........",
"                                            ........",
"                                           .........",
"                                           .........",
"                                           .........",
"                                           .........",
"                                            ........",
"                                            ........",
"                                            ........",
"                                             .......",
".                                            .......",
".                                             ......",
".                                             ......",
".                                              .....",
".                                               ....",
"..                                               ...",
"..                                                 .",
"..                                                 .",
"...                                                .",
"...                                                .",
"....                                               .",
"....                                              ..",
".....                                             ..",
".....                                            ...",
"......                                           ...",
".......                                         ....",
".......                                        .....",
"........                                       .....",
".........                                     ......",
".........                                    .......",
"..........                                  ........",
"...........              ....              .........",
"............          ..........          ..........",
"..............     ................     ............"
};
