/* XPM */
static char *result[] = {
/* columns rows colors chars-per-pixel */
"64 64 7 1 ",
"  c #3C5A99",
". c #48649F",
"X c #A6B4D1",
"o c #BFC9DD",
"O c #C0CADE",
"+ c white",
"@ c None",
/* pixels */
"@@@@@@@@@@@@@@@@@@@@@@@@@@@@@@@@@@@@@@@@@@@@@@@@@@@@@@@@@@@@@@@@",
"@@@                                                          @@@",
"@@                                                            @@",
"@                                                              @",
"@                                                              @",
"@                                                              @",
"@                                                              @",
"@                                                              @",
"@                                                              @",
"@                                                              @",
"@                                           o++++X             @",
"@                                       .++++++++++++          @",
"@                                      ++++++++++++++          @",
"@                                     +++++++++++++++          @",
"@                                    ++++++++++++++++          @",
"@                                   +++++++++++++++++          @",
"@                                  ++++++++++++++++++          @",
"@                                  ++++++++++++++++++          @",
"@                                  ++++++++++++++++++          @",
"@                                 ++++++++++++                 @",
"@                                 ++++++++++O                  @",
"@                                 ++++++++++                   @",
"@                                 ++++++++++                   @",
"@                                 ++++++++++                   @",
"@                                 ++++++++++                   @",
"@                                 ++++++++++                   @",
"@                                 ++++++++++                   @",
"@                                 ++++++++++                   @",
"@                                 ++++++++++                   @",
"@                                 ++++++++++                   @",
"@                         +++++++++++++++++++++++++++          @",
"@                         +++++++++++++++++++++++++++          @",
"@                         +++++++++++++++++++++++++++          @",
"@                         ++++++++++++++++++++++++++           @",
"@                         ++++++++++++++++++++++++++           @",
"@                         ++++++++++++++++++++++++++           @",
"@                         ++++++++++++++++++++++++++           @",
"@                         ++++++++++++++++++++++++++           @",
"@                         ++++++++++++++++++++++++++           @",
"@                                 ++++++++++                   @",
"@                                 ++++++++++                   @",
"@                                 ++++++++++                   @",
"@                                 ++++++++++                   @",
"@                                 ++++++++++                   @",
"@                                 ++++++++++                   @",
"@                                 ++++++++++                   @",
"@                                 ++++++++++                   @",
"@                                 ++++++++++                   @",
"@                                 ++++++++++                   @",
"@                                 ++++++++++                   @",
"@                                 ++++++++++                   @",
"@                                 ++++++++++                   @",
"@                                 ++++++++++                   @",
"@                                 ++++++++++                   @",
"@                                 ++++++++++                   @",
"@                                 ++++++++++                   @",
"@                                 ++++++++++                   @",
"@                                 ++++++++++                   @",
"@                                 ++++++++++                   @",
"@                                 ++++++++++                   @",
"@                                 ++++++++++                   @",
"@@                                ++++++++++                  @@",
"@@@                               ++++++++++                 @@@",
"@@@@@@@@@@@@@@@@@@@@@@@@@@@@@@@@@@@@@@@@@@@@@@@@@@@@@@@@@@@@@@@@"
};
