/* XPM */
static char *_c1268921d734cbfb61f332c279b17b5iWnKggai6FXUEzlY[] = {
/* columns rows colors chars-per-pixel */
"189 64 22 1 ",
"  c None",
". c #E94334",
"X c #E94335",
"o c #EA4334",
"O c #EA4235",
"+ c #EA4335",
"@ c #EB4436",
"# c #34A853",
"$ c #FBBB05",
"% c #FBBB06",
"& c #FBBC05",
"* c #FBBD05",
"= c #FCBC05",
"- c #4184F3",
"; c #4284F3",
": c #4385F3",
"> c #4285F4",
", c #4385F4",
"< c #4285F5",
"1 c #4186F4",
"2 c #4286F4",
"3 c #4386F4",
/* pixels */
"                     ;>>>>>>                                                                                                                                                                 ",
"                 >>>>>>>>>>>>>>>                                                                                                                                                             ",
"              >>>>>>>>>>>>>>>>>>>>>                                                                                                                   ######                                 ",
"             >>>>>>>>>>>>>>>>>>>>>>>                                                                                                                  ######                                 ",
"           >>>>>>>>>>>>>>>>>>>>>>>>>>>                                                                                                                ######                                 ",
"          >>>>>>>>>>>>>>>>>>>>>>>>>>>>>                                                                                                               ######                                 ",
"        >>>>>>>>>>>>>>>>>>>>>>>>>>>>>>>>                                                                                                              ######                                 ",
"       >>>>>>>>>>>>>         >>>>>>>>>>>                                                                                                              ######                                 ",
"      >>>>>>>>>>>               >>>>>>>                                                                                                               ######                                 ",
"     >>>>>>>>>>                   >>>>                                                                                                                ######                                 ",
"     >>>>>>>>>                     >>                                                                                                                 ######                                 ",
"    >>>>>>>>>                                                                                                                                         ######                                 ",
"   >>>>>>>>>                                                                                                                                          ######                                 ",
"   >>>>>>>>                                                                                                                                           ######                                 ",
"  >>>>>>>>                                                                                                                                            ######                                 ",
"  >>>>>>>>                                                                                                                                            ######                                 ",
"  >>>>>>>                                                                                                                                             ######                                 ",
" >>>>>>>>                                                      ++++                              $**                              >>                  ######                +++              ",
" >>>>>>>                                                   ++++++++++++                     $*$**$*$*$*$                      >>>>>>>>>>   >>>>>>>    ######            +++++++++++          ",
" >>>>>>>                                                 ++++++++++++++++                 *$*$*$$*$*$*$*$*                  >>>>>>>>>>>>>> >>>>>>>    ######          +++++++++++++++        ",
" >>>>>>>                                               +++++++++++++++++++               *$**$*$*$*$*$*$*$*$              >>>>>>>>>>>>>>>>>>>>>>>>    ######         +++++++++++++++++       ",
">>>>>>>>                                              ++++++++++++++++++++++            $**$$*$*$*$*$*$*$*$**            >>>>>>>>>>>>>>>>>>>>>>>>>    ######        +++++++++++++++++++      ",
">>>>>>>                 ;>>>>>>>>>>>>>>>>>>>>>>      ++++++++++++++++++++++++          **$*$*$*$$**$*$*$*$*$$*          >>>>>>>>>>>>>>>>>>>>>>>>>>    ######       +++++++++++++++++++++     ",
">>>>>>>                 ;>>>>>>>>>>>>>>>>>>>>>>      +++++++++++  +++++++++++         **$*$*$*$**  *$*$*$*$**$*        >>>>>>>>>>>> >>>>>>>>>>>>>>    ######      ++++++++++    +++++++++    ",
">>>>>>>                 ;>>>>>>>>>>>>>>>>>>>>>>     +++++++++        +++++++++       *$*$*$*$*        *$$*$*$*$        >>>>>>>>>       >>>>>>>>>>>    ######     +++++++++        ++++++++   ",
">>>>>>>                 ;>>>>>>>>>>>>>>>>>>>>>>    ++++++++           +++++++++      $*$*$*$*           *$*$*$*$      >>>>>>>>           >>>>>>>>>    ######     ++++++++          +++++++   ",
">>>>>>>                 ;>>>>>>>>>>>>>>>>>>>>>>    +++++++             ++++++++     $*$*$*$*             **$$*$*      >>>>>>>             >>>>>>>>    ######    ++++++++            +++++++  ",
">>>>>>>>                ;>>>>>>>>>>>>>>>>>>>>>>   ++++++++              ++++++++    *$*$*$*               $**$*$*    >>>>>>>              >>>>>>>>    ######    +++++++           +++++++++  ",
" >>>>>>>                ;>>>>>>>>>>>>>>>>>>>>>>   +++++++                +++++++   *$*$*$**               *$*$*$$    >>>>>>>               >>>>>>>    ######    +++++++        ++++++++++++  ",
" >>>>>>>                                >>>>>>>   +++++++                +++++++   **$*$*$                 *$*$**    >>>>>>>               >>>>>>>    ######    ++++++       +++++++++++++   ",
" >>>>>>>>                               >>>>>>    +++++++                +++++++   $$*$*$*                 $*$*$*$  >>>>>>>                 >>>>>>    ######   +++++++    ++++++++++++++     ",
" >>>>>>>>                               >>>>>>    ++++++                  ++++++   **$*$*$                 *$*$*$*  >>>>>>>                 >>>>>>    ######   +++++++  ++++++++++++++       ",
"  >>>>>>>                              >>>>>>>    ++++++                  ++++++   **$*$*$                 $*$*$*$  >>>>>>>                 >>>>>>    ######   ++++++++++++++++++++          ",
"  >>>>>>>>                             >>>>>>>    ++++++                  ++++++   $$*$*$*                 *$*$*$*  >>>>>>>                 >>>>>>    ######   ++++++++++++++++++            ",
"   >>>>>>>>                           >>>>>>>3    ++++++                  ++++++   **$*$*$                 $*$*$$*  >>>>>>>                 >>>>>>    ######   +++++++++++++++               ",
"   >>>>>>>>                           >>>>>>>     +++++++                +++++++   *$*$*$*                 *$*$**$  >>>>>>>                >>>>>>>    ######   +++++++++++++                 ",
"    >>>>>>>>                         >>>>>>>>     +++++++                +++++++   **$*$*$                *$$*$*$    >>>>>>>               >>>>>>>    ######    +++++++++                    ",
"    >>>>>>>>>                       >>>>>>>>      +++++++               ++++++++    $*$*$**               $**$*$*    >>>>>>>               >>>>>>>    ######    +++++++                      ",
"     >>>>>>>>>>                    >>>>>>>>>       +++++++              +++++++     *$*$*$$              *$*$*$*$    >>>>>>>>             >>>>>>>>    ######    ++++++++              +      ",
"      >>>>>>>>>>                 >>>>>>>>>>        ++++++++            ++++++++     $*$*$*$*            *$*$*$*$      >>>>>>>            >>>>>>>>>    ######     +++++++             +++     ",
"       >>>>>>>>>>>             >>>>>>>>>>>          ++++++++          ++++++++       $*$*$*$*          *$*$**$**      >>>>>>>>>         >>>>>>>>>>    ######     ++++++++           ++++++   ",
"        >>>>>>>>>>>>>>     >>>>>>>>>>>>>>           ++++++++++      ++++++++++       *$*$*$*$**       *$*$*$$*$        >>>>>>>>>       >>>>>>>>>>>    ######      +++++++++       +++++++++  ",
"         >>>>>>>>>>>>>>>>>>>>>>>>>>>>>>>             ++++++++++++++++++++++++         *$*$*$*$*$*$*$$*$*$*$**$          >>>>>>>>>>>>>>>>>>>>>>>>>>    ######      +++++++++++++++++++++++++  ",
"          >>>>>>>>>>>>>>>>>>>>>>>>>>>>>               ++++++++++++++++++++++           *$*$*$*$*$*$**$*$*$*$$*          >>>>>>>>>>>>>>>>>>>>>>>>>>    ######       +++++++++++++++++++++++   ",
"            >>>>>>>>>>>>>>>>>>>>>>>>>>                 ++++++++++++++++++++             *$*$$*$**$*$*$$*$*$*              >>>>>>>>>>>>>>>>>>>>>>>>    ######        ++++++++++++++++++++     ",
"             >>>>>>>>>>>>>>>>>>>>>>>                    ++++++++++++++++++               *$**$*$$*$*$**$*$*                >>>>>>>>>>>>>>> >>>>>>>    ######          +++++++++++++++++      ",
"                >>>>>>>>>>>>>>>>>>                        ++++++++++++++                   *$*$**$*$*$**$=                  >>>>>>>>>>>>>  >>>>>>>    ######           +++++++++++++++       ",
"                   >>>>>>>>>>>>                             ++++++++++                       $**$*$*$*$                        >>>>>>>>    >>>>>>>                        +++++++++          ",
"                                                                                                                                           >>>>>>>                                           ",
"                                                                                                                                           >>>>>>>                                           ",
"                                                                                                                                           >>>>>>                                            ",
"                                                                                                                         >>>               >>>>>>                                            ",
"                                                                                                                       >>>>>              >>>>>>>                                            ",
"                                                                                                                      >>>>>>>            >>>>>>>                                             ",
"                                                                                                                      >>>>>>>>          >>>>>>>>                                             ",
"                                                                                                                       >>>>>>>>>      >>>>>>>>>>                                             ",
"                                                                                                                        >>>>>>>>>>>>>>>>>>>>>>>                                              ",
"                                                                                                                        >>>>>>>>>>>>>>>>>>>>>>                                               ",
"                                                                                                                         >>>>>>>>>>>>>>>>>>>>                                                ",
"                                                                                                                           >>>>>>>>>>>>>>>>>                                                 ",
"                                                                                                                            >>>>>>>>>>>>>>                                                   ",
"                                                                                                                               >>>>>>>>>                                                     ",
"                                                                                                                                                                                             ",
"                                                                                                                                                                                             "
};
